<svg width="24" height="24" fill="none" xmlns="http://www.w3.org/2000/svg"><circle cx="12" cy="12" r="12" fill="#fff"/><path d="M12 22.5c5.799 0 10.5-4.701 10.5-10.5S17.799 1.5 12 1.5 1.5 6.201 1.5 12 6.201 22.5 12 22.5Z" fill="#fff"/><path d="M24 12c0-6.627-5.373-12-12-12S0 5.373 0 12s5.373 12 12 12 12-5.373 12-12Z" fill="url(#a)"/><mask id="c" style="mask-type:alpha" maskUnits="userSpaceOnUse" x="0" y="0" width="24" height="24"><path d="M24 12c0-6.627-5.373-12-12-12S0 5.373 0 12s5.373 12 12 12 12-5.373 12-12Z" fill="url(#b)"/></mask><g opacity=".8" stroke-width=".2" stroke-miterlimit="10" mask="url(#c)"><path d="M9.875 25.411c-.879 0-1.712-.056-2.412-.11l-.192-.015-.193-.027c-.084-.012-.199-.024-.31-.036-.672-.073-1.924-.21-3.305-.858l-.215-.101-.2-.113C.393 22.663-.6 20.423-1.136 19.22l-.114-.255c-.27-.553-.44-1.051-.586-1.507l-.032-.102-.027-.1c-.385-1.369-.482-2.552-.306-3.721.177-1.175.612-2.243 1.368-3.362l.392-.64c.08-.129.136-.271.166-.42.299-1.48.977-2.53 1.31-3.03a9.34 9.34 0 0 1 .451-1.78l.031-.087.033-.085.026-.075c.15-.45.5-1.506 1.399-2.613l.337-.41.344-.31a7.97 7.97 0 0 1 3.078-1.738 8.691 8.691 0 0 1 1.962-.346l.064-.005.097-.005a7.347 7.347 0 0 1 1.58.096c.255.043.517.013.757-.086a8.657 8.657 0 0 1 2.215-.595c.064-.01.12-.016.163-.022a18.842 18.842 0 0 1 2.23-.144c1.306 0 2.43.17 3.436.518l.085.03.084.03c2.22.84 3.351 2.012 4.164 3.046l.039.05.112.1a7.739 7.739 0 0 1 1.843 2.073l.152.25.128.26c1.086 2.218.74 4.265.61 5.034l-.006.041a8.805 8.805 0 0 1-.445 1.663 8.474 8.474 0 0 1-.365 1.527 8.857 8.857 0 0 1-1.26 2.465c-.315.446-.67.86-1.063 1.24a.864.864 0 0 0-.255.501 9.294 9.294 0 0 1-1.429 3.718l-.92 1.325c-1.11 1.383-2.428 2.295-4.022 2.785l-.386.121-.417.073a8.21 8.21 0 0 1-1.446.125c-.066 0-.134 0-.208-.002h-.022l-.082.005-.088.003h-.003a2.133 2.133 0 0 0-.544.09c-1.03.315-2.194.463-3.619.463Z" stroke="url(#d)"/><path d="M9.875 24.501c-.842 0-1.65-.053-2.328-.107l-.161-.012-.161-.022c-.1-.014-.223-.027-.341-.04-.654-.072-1.747-.19-2.966-.763l-.18-.084-.166-.093c-2.343-1.315-3.21-3.266-3.728-4.432l-.125-.278a9.8 9.8 0 0 1-.533-1.373l-.027-.085-.023-.083c-.343-1.218-.431-2.257-.279-3.272.153-1.014.538-1.951 1.21-2.94l.502-.82a1.37 1.37 0 0 0 .18-.473c.25-1.392.908-2.38 1.207-2.83l.038-.056.014-.023a.951.951 0 0 0 .017-.04l.054-.172a8.174 8.174 0 0 1 .414-1.675l.027-.073.029-.073.043-.124c.142-.43.439-1.32 1.214-2.276l.281-.341.286-.258A6.909 6.909 0 0 1 7.043.176 7.675 7.675 0 0 1 8.77-.128l.054-.004.08-.004c.098-.005.196-.007.291-.007.42 0 .84-.121 1.252-.037.318.066.648.03.945-.1.555-.245 1.301-.343 2.156-.45l.155-.02A17.036 17.036 0 0 1 15.8-.887c1.186 0 2.195.15 3.086.459l.072.025.07.026c1.968.744 2.94 1.74 3.699 2.705l.101.128.018.016.144.128.02.02a6.647 6.647 0 0 1 1.638 1.825l.126.208.107.218c.934 1.907.642 3.642.517 4.383l-.007.04a7.77 7.77 0 0 1-.433 1.573 7.403 7.403 0 0 1-.336 1.453 7.836 7.836 0 0 1-1.115 2.181 7.615 7.615 0 0 1-1.128 1.274c-.197.176-.32.42-.348.681-.02.193-.048.381-.083.565-.28 1.508-.937 2.55-1.237 3.018l-.747 1.085c-.992 1.275-2.168 2.109-3.592 2.548l-.322.1-.349.061a7.17 7.17 0 0 1-1.26.11c-.062 0-.125 0-.192-.002h-.06l-.04.002-.074.004-.074.003-.148.006c-.196.006-.39.04-.578.1-.948.303-2.044.445-3.399.445Z" stroke="url(#e)"/><path d="M9.875 23.429c-.804 0-1.587-.053-2.246-.104l-.128-.01-.128-.018c-.116-.016-.247-.03-.373-.044-.625-.068-1.568-.17-2.626-.666l-.143-.068-.135-.075c-2.031-1.139-2.778-2.819-3.272-3.931l-.134-.302a8.666 8.666 0 0 1-.48-1.238l-.021-.067-.019-.067c-.3-1.066-.38-1.963-.25-2.82.131-.87.473-1.682 1.075-2.553l.071-.104.078-.1.142-.183.302-.554c.099-.181.166-.378.197-.582.192-1.242.791-2.14 1.067-2.554l.002-.002.046-.07.06-.095c.022-.05.053-.117.08-.187.027-.084.058-.188.093-.295.066-.53.191-1.05.374-1.55l.021-.06.023-.058c.02-.05.033-.092.061-.176.133-.397.378-1.135 1.03-1.939l.225-.273.228-.205a5.848 5.848 0 0 1 2.26-1.276A6.58 6.58 0 0 1 8.85.942l.043-.003.065-.003a5.177 5.177 0 0 1 1.534.159c.366.092.752.051 1.09-.116a6.74 6.74 0 0 1 2.26-.665 15.969 15.969 0 0 1 1.961-.128c1.063 0 1.958.13 2.736.4l.057.02.055.02c1.808.684 2.618 1.579 3.235 2.364.136.173.156.2.25.282l.114.103.045.046c.298.23.906.704 1.438 1.582l.101.166.086.174c.782 1.597.539 3.04.422 3.733l-.007.039a6.745 6.745 0 0 1-.422 1.481l-.005.044a6.423 6.423 0 0 1-.3 1.338 6.798 6.798 0 0 1-.97 1.898 6.388 6.388 0 0 1-1.256 1.34 1.023 1.023 0 0 0-.387.753 6.2 6.2 0 0 1-.099.854c-.243 1.307-.814 2.214-1.105 2.666l-.579.855c-.872 1.165-1.906 1.92-3.156 2.302l-.257.08-.279.05a6.138 6.138 0 0 1-1.077.093c-.056 0-.113 0-.175-.002h-.076c-.01 0-.042 0-.107.004l-.059.004-.355.013a2.17 2.17 0 0 0-.614.11c-.869.293-1.894.43-3.183.43Z" stroke="url(#f)"/><path d="M9.875 22.356c-.769 0-1.525-.051-2.163-.1l-.096-.008-.096-.013c-.132-.018-.27-.034-.405-.048-.587-.064-1.39-.151-2.286-.572l-.107-.05-.1-.056c-1.72-.966-2.354-2.39-2.816-3.431l-.147-.329a7.599 7.599 0 0 1-.426-1.1l-.016-.05-.014-.05c-.504-1.788-.314-3.042.674-4.473l.054-.078.058-.074.188-.242c.09-.12.183-.241.284-.366a1 1 0 0 0 .15-.258l.113-.29c.048-.123.078-.253.09-.384.098-1.148.655-1.984.932-2.398l.001-.002.061-.093.065-.103.02-.027c.034-.07.101-.216.16-.37.033-.105.083-.266.132-.413a6.002 6.002 0 0 1 .332-1.425l.016-.044.017-.045c.03-.076.052-.14.08-.228.119-.355.316-.948.845-1.6l.17-.206.17-.153C7.062 2.144 8.46 2.046 8.927 2.014l.033-.002.049-.002a4.184 4.184 0 0 1 1.804.326.664.664 0 0 0 .566-.027h.002c.475-.276 1.345-.775 2.455-.909l.139-.019a15.643 15.643 0 0 1 1.827-.118c.942 0 1.722.111 2.384.34l.043.015.042.016c1.55.586 2.218 1.32 2.769 2.022.148.188.215.275.38.422l.087.077.07.07.053.043c.262.203.75.582 1.184 1.295l.076.124.064.131c.63 1.287.433 2.455.327 3.082l-.006.038a5.698 5.698 0 0 1-.387 1.326l-.015.037-.007.036a1.895 1.895 0 0 0-.019.121l-.006.05a5.35 5.35 0 0 1-.252 1.13 5.76 5.76 0 0 1-.824 1.614 5.22 5.22 0 0 1-1.197 1.236 1.562 1.562 0 0 0-.64 1.24 5.3 5.3 0 0 1-.089.9c-.205 1.107-.678 1.857-.972 2.314l-.42.63c-.754 1.052-1.642 1.724-2.712 2.052l-.056.017c-.09.029-.184.051-.277.067l-.068.012a5.041 5.041 0 0 1-.894.078c-.05 0-.102 0-.158-.002h-.092c-.021 0-.077 0-.176.006l-.045.003-.043.002c-.143.005-.322.011-.48.018a2.14 2.14 0 0 0-.64.126c-.769.274-1.711.405-2.932.405Z" stroke="url(#g)"/><path d="M9.875 21.283c-.732 0-1.462-.05-2.08-.097l-.064-.005-.064-.009c-.148-.02-.295-.037-.437-.052-.54-.059-1.21-.132-1.945-.476l-.072-.034-.067-.037c-1.41-.79-1.936-1.977-2.36-2.93l-.16-.357a6.52 6.52 0 0 1-.371-.961l-.011-.034-.01-.033c-.415-1.475-.278-2.411.525-3.573l.036-.052.039-.05.195-.254c.21-.274.41-.539.712-.86a.418.418 0 0 0 .112-.259l.023-.347-.01-.113.005-.118c.031-.952.51-1.668.765-2.053l.079-.12.043-.068.04-.054c.048-.078.173-.344.268-.6.033-.107.096-.311.152-.473a.75.75 0 0 0 .031-.176c.044-.402.137-.796.276-1.176l.01-.03.012-.029c.04-.101.067-.184.1-.28.1-.304.253-.763.659-1.263l.113-.137.112-.102c.875-.794 1.828-.945 2.472-.988l.022-.002h.033l.139-.003c.55 0 1.206.264 1.552.423a.69.69 0 0 0 .528.019c.215-.078.425-.17.627-.276.439-.255 1.168-.675 2.072-.78l.132-.019c.09-.01.234-.027.412-.045.309-.03.78-.065 1.28-.065.82 0 1.486.093 2.034.282l.028.01.027.01c1.294.49 1.81 1.051 2.305 1.682.16.203.274.348.51.56l.058.05.053.055c.049.047.1.091.156.13.222.173.594.46.924 1.004l.05.083.044.088c.478.976.324 1.887.232 2.431l-.006.037a4.638 4.638 0 0 1-.319 1.092v.003c-.041.09-.07.186-.085.284a2.944 2.944 0 0 0-.029.185l-.006.05a4.333 4.333 0 0 1-.205.922 4.659 4.659 0 0 1-.678 1.33c-.437.624-.943 1.063-1.552 1.341a.882.882 0 0 0-.514.764 1.7 1.7 0 0 0-.003.152c.03.47.064 1-.04 1.548-.168.906-.551 1.515-.84 1.962 0 0-1.322 1.841-2.526 2.208l-.13.04-.139.025a3.981 3.981 0 0 1-.71.062c-.044 0-.09 0-.14-.002h-.11c-.047 0-.124 0-.244.009l-.03.002h-.028c-.46.016-.896.032-1.017.055a.75.75 0 0 0-.188.056c-.68.298-1.574.438-2.807.438Z" stroke="url(#h)"/><path d="M9.875 20.21c-.695 0-1.4-.047-1.996-.094l-.032-.002-.032-.005c-.164-.022-.319-.04-.469-.055-.508-.056-1.033-.113-1.606-.381l-.036-.017-.033-.019c-1.1-.617-1.508-1.538-1.904-2.43-.057-.127-.115-.258-.175-.388a5.448 5.448 0 0 1-.314-.818l-.006-.017-.004-.017c-.33-1.174-.247-1.773.375-2.673l.018-.026.02-.025c.072-.093.139-.18.202-.264.3-.392.557-.73 1.136-1.265l.002-.002a.304.304 0 0 0 .076-.322l-.104-.297a2.163 2.163 0 0 1-.044-.284v-.004l-.006-.08.002-.06c.02-.645.36-1.155.585-1.492.036-.053.07-.102.095-.144l.022-.035.024-.032c.12-.161.313-.607.415-.882.027-.085.095-.314.153-.48.04-.124.067-.252.078-.383.034-.323.108-.64.22-.945l.006-.015.006-.014c.05-.128.084-.232.118-.334.09-.27.192-.576.475-.925l.056-.069.056-.05c.622-.565 1.303-.678 1.829-.713h.028l.088-.002c.512 0 .905.21 1.165.348l.06.033.01.005c.071.038.134.072.192.1a.74.74 0 0 0 .522.054 6.704 6.704 0 0 0 1.286-.512l.008-.004c.393-.228.985-.572 1.68-.648.043-.007.085-.012.124-.017.08-.01.215-.027.379-.041.285-.027.72-.06 1.178-.06.699 0 1.25.073 1.683.222l.014.005.015.006c1.038.392 1.417.803 1.839 1.34.171.22.334.426.641.7l.029.027.027.026c.083.084.173.162.268.231.184.143.437.339.665.713l.025.041.021.044c.326.667.218 1.31.138 1.781l-.006.037a3.544 3.544 0 0 1-.253.861c-.07.159-.12.325-.148.496-.019.1-.03.177-.04.249l-.006.051a3.311 3.311 0 0 1-.157.714 3.595 3.595 0 0 1-.532 1.046c-.394.566-.831.915-1.412 1.1-.278.088-.518.269-.678.513l-.046.07-.051.059c-.147.168-.106.819-.08 1.207.026.426.055.867-.024 1.282-.131.709-.435 1.188-.707 1.609 0 0-1.01 1.457-1.922 1.734l-.066.02-.07.013c-.173.03-.35.046-.526.045h-.25c-.062 0-.161 0-.312.01h-.029c-.611.023-.98.036-1.184.076a1.815 1.815 0 0 0-.399.12c-.546.241-1.308.354-2.395.354Z" stroke="url(#i)"/></g><path d="M20.16 8.254c-.05.294-.109.436-.178.601a3.463 3.463 0 0 0-.235.784c-.03.162-.046.28-.059.384v.006l-.001.006c-.022.167-.036.28-.104.48-.055.163-.146.435-.368.729-.179.237-.478.635-.878.682a.358.358 0 0 1-.137-.009c-1.133-.579-2.107-1.006-2.444-1.102-.392-.111-.342-.966-.297-1.72.02-.337.038-.656.023-.93-.055-.951-.224-1.993-1.053-2.501-.495-.304-1.134-.392-1.744-.394a5.42 5.42 0 0 0 .377-.207l.004-.002c.36-.208.805-.466 1.248-.512.145-.014.287-.03.428-.046.893-.102 1.665-.188 2.479.09.369.127 1.126.55 1.321.941.138.277.37.493.833.923.241.225.4.355.516.45l.006.005c.163.134.195.162.244.261.15.306.095.631.02 1.081ZM16.014 12.16c.065.022.09.102.052.16-.118.181-.252.426-.412.723a14.67 14.67 0 0 1-.214.39c-.22.376-.238.694-.252.949-.015.266-.028.388-.187.495-.132.088-.266.117-1.2.26-.162.024-.235.056-.298.084l-.031.013c-.065.026-.13-.03-.126-.1.007-.13.011-.29.012-.488v-.04a5.317 5.317 0 0 0-.01-.451c-.012-.239-.013-.339.05-.443.078-.125.139-.163.239-.227.14-.087.33-.208.614-.597.15-.207.184-.318.205-.415.009-.04.012-.055.128-.143.123-.093.496-.376.974-.295.126.021.286.067.456.125ZM12.324 16.47a.097.097 0 0 1-.079.04c-.097.005-.166-.02-.211-.074-.096-.117-.083-.352-.06-.49l.394-.105c.03.209.045.513-.044.63ZM12.356 15.047a1.591 1.591 0 0 0-.014.19l.002.075c0 .065.003.167-.006.214a.942.942 0 0 1-.367.042c-.002-.04 0-.1.002-.14l.003-.091v-.097c0-.076-.001-.2.017-.237.037-.005.075-.014.116-.023a.853.853 0 0 1 .256-.03 1.238 1.238 0 0 1-.01.097ZM11.626 16.349c-.02.202-.082.452-.272.49-.085.018-.126-.008-.152-.032-.129-.12-.149-.478-.131-.734.085.001.197-.018.33-.044.08-.016.161-.034.225-.048.007.095.013.23 0 .368ZM11.536 15.623l-.428.15c.022-.166.05-.4.06-.556.008-.109.038-.143.046-.15.003-.002.01-.007.025-.007h.008l.009.001.27-.014c.012.127.012.406.01.576ZM10.844 15.49a2.664 2.664 0 0 0-.07.375l-.536-.016a3.4 3.4 0 0 1 .118-.47c.046-.134.097-.234.143-.262a.234.234 0 0 1 .244.022c.118.1.151.216.101.35ZM10.644 17.13c-.041.058-.088.087-.145.093a.165.165 0 0 1-.14-.04c-.168-.156-.154-.666-.148-.91a4.52 4.52 0 0 1 .576-.1c.017.204.022.733-.143.958ZM9.944 15.835c-.026.07-.051.135-.07.194-.063.02-.253.002-.448-.04l.134-.845c.22-.058.475-.077.537-.011.08.086-.082.518-.153.702ZM9.702 17.26c-.104.128-.26.188-.478.186-.15-.003-.204-.06-.231-.103-.121-.191-.003-.642.116-.93l.726.043c.007.051.014.113.016.18.008.205-.017.46-.15.624Z" fill="#fff"/><path d="M15.704 11.135c-.654-.185-.598-1.141-.543-2.065.02-.327.037-.637.023-.89-.05-.864-.196-1.806-.892-2.233-.748-.458-1.972-.353-2.728-.257h-.002c-.277.084-.536.139-.737.128-.445-.023-.792-.21-1.097-.375-.239-.13-.447-.24-.642-.24h-.032c-.586.038-.855.18-1.1.399-.06.054-.136.212-.381.92-.124.357-.147.552-.17.742-.02.174-.042.353-.134.62-.065.183-.112.342-.158.495-.121.406-.217.726-.504 1.106-.034.045-.076.111-.124.187-.065.103-.146.23-.252.378-.076.104-.248.494-.239.613.014.189.076.306.146.443.07.135.15.288.164.5l.003.033c.025.335-.022.503-.66 1.072a6.801 6.801 0 0 0-.891.973c-.017.023.005.057.034.055a.499.499 0 0 1 .056-.003h.036l.036.004a.68.68 0 0 1 .413.195c.018.02.048.025.073.015a.677.677 0 0 1 .326-.026c.13.012.26.05.35.13.034.03.08.047.125.038a.56.56 0 0 1 .306.018.512.512 0 0 1 .186.12c.048.049.13.058.19.024a.453.453 0 0 1 .077-.034.654.654 0 0 1 .425.028c.067.024.136.045.195.085a.56.56 0 0 1 .206.263c.033.08.143.107.213.057.085-.061.155-.07.225-.038.03.013.052.03.07.05.05.058.131.116.206.099a.971.971 0 0 1 .647.082c.069.036.136.091.186.174l.006-.037a.044.044 0 0 1 .03-.035l.045-.014c.106-.034.647-.19.857.032.009.009.025.01.034 0a.295.295 0 0 1 .066-.057.476.476 0 0 1 .528.046c.031.026.082.017.106-.017a.276.276 0 0 1 .251-.12l.297-.016a4.223 4.223 0 0 0 .397-.038l.106-.02c.144-.032.307-.067.441-.006.13.06.113.207.097.336-.006.053-.012.108-.012.16l.002.073c.002.112.004.215-.018.294v.001l.014.062c.014.06.078.094.131.061.1-.062.204-.14.237-.186a.517.517 0 0 0 .029-.104c.018-.11.038-.335.04-.79v-.05a5.186 5.186 0 0 0-.009-.423c-.012-.247-.022-.441.1-.639.12-.192.235-.265.347-.335.129-.081.275-.174.52-.51.121-.167.136-.234.148-.287.027-.126.068-.201.254-.342.152-.114.613-.464 1.235-.359.204.035.535.143.861.272h.001a.205.205 0 0 1 .035.013l.016.008c.282.112.556.238.738.34.052.029.118.011.155-.034a.658.658 0 0 1 .183-.149c.026-.016.046-.028.065-.045.062-.052.06-.16-.01-.197a11.214 11.214 0 0 0-1.954-.773Zm-6.231.201c-.202.886-1.574 1.859-2.197 1.859h-.012a.289.289 0 0 1-.07-.012l-.021-.006a1.054 1.054 0 0 1-.389-.24.556.556 0 0 1-.166-.276l-.011-.053a.918.918 0 0 1 .057-.647c.019-.041.035-.08.05-.115l.015-.034a7.137 7.137 0 0 0 .099-.25c.037-.106.042-.146.047-.188.005-.032.01-.071.023-.128.039-.166.06-.306.077-.432.032-.225.06-.42.181-.598a.493.493 0 0 1 .096-.107l.028-.022a.586.586 0 0 1 .206-.092 1.1 1.1 0 0 1 .395-.013 2.4 2.4 0 0 1 .455.083 2.893 2.893 0 0 1 .375.133l.065.028.073.032.02.01c.095.043.178.091.248.142a1.222 1.222 0 0 1 .15.13c.264.278.251.599.206.796Zm.635-3.355-.026.16c-.062.362-.203.858-.724.986-.5.122-.62.149-.976.165h-.025c-.26 0-.761-.164-.85-.572-.057-.263.06-.453.25-.769l.103-.17c.252-.425.352-.733.431-.98.078-.24.143-.44.31-.605a.924.924 0 0 1 .383-.23c.116-.037.241-.056.367-.056.243 0 .485.07.658.209.078.062.189.187.253.555.033.19-.023.537-.154 1.307Zm3.715 1.03c-.179.307-.277.477-.432.604-.307.252-.665.316-.96.316-.213 0-.393-.033-.499-.052-.305-.056-.872-.16-1.061-.607a.483.483 0 0 1-.038-.217c0-.07 0-.189-.033-.47l-.001-.02a1.367 1.367 0 0 1 .004-.457l.005-.022c.107-.544.136-.627.16-.674a.218.218 0 0 1 .391.19c-.01.032-.041.148-.124.569l-.004.022a.94.94 0 0 0 0 .322l.002.02c.036.306.036.445.036.52a.78.78 0 0 0 0 .036c0 .004.002.008.003.011.032.076.1.135.183.181.072.04.15-.03.134-.11-.09-.473-.08-1.014.098-1.352.06-.115.171-.302.276-.478l.001-.001.001-.001.032-.053.026-.044.125-.204.014-.023a.224.224 0 0 1 .01-.016l.02-.033.008-.013.004-.006a.32.32 0 0 1 .01-.015l.011-.02.003-.004V6.91l.078-.11c.057-.078-.01-.179-.098-.139a1.384 1.384 0 0 0-.278.165.217.217 0 0 1-.306-.035.219.219 0 0 1 .036-.306c.112-.089.706-.522 1.418-.318.513.145.781.537.883.684.081.12.332.483.323.99-.006.387-.167.665-.46 1.17Z" fill="#fff"/><path d="M9.2 6.359c-.036.088-.08.197-.126.316-.11.275-.233.586-.293.7-.103.194-.183.317-.247.417-.073.114-.131.204-.175.33-.078.22-.091.465-.041.732-.137-.015-.36-.109-.385-.227-.019-.088.036-.184.197-.45l.105-.174c.277-.467.39-.814.472-1.068.089-.276.13-.392.272-.489a.574.574 0 0 1 .222-.087ZM8.93 16.148a4.12 4.12 0 0 1-.456.735c-.097-.262-.266-.864-.221-1.347a.938.938 0 0 1 .133-.438c.047-.072.175-.116.322-.116.108 0 .226.024.327.078.055.03.129.088.136.258.012.23-.098.54-.24.83Z" fill="#fff"/><path d="M17.207 12.69c.012.01.02.024.012.037-.045.09-.099.155-.163.23-.077.091-.165.195-.247.358-.117.23-.154.44-.174.977-.023.631.002.986.02 1.245.017.25.028.4-.016.643-.09.492-.3.817-.566 1.229-.334.515-.678 1.047-1.248 1.217-.053.016-.055.016-.204.016-.13 0-.345 0-.752.016-.746.027-1.12.04-1.44.102-.335.065-.51.136-.68.205-.152.062-.297.12-.575.178-.165.033-.412.07-1.255.07-.875.002-1.403.003-2.101-.077-.958-.11-1.438-.164-1.757-.334-.753-.402-1.071-1.124-1.597-2.32l-.003-.007c-.006-.015.012-.03.026-.02a.42.42 0 0 0 .324.049l.004-.003c.009-.004.02 0 .024.008a.386.386 0 0 0 .176.222c.089.047.19.05.29.05.103-.002.206-.008.308-.02.054-.006.11.02.13.07.093.227.21.392.383.416.01.001.022.003.037.003a.296.296 0 0 0 .152-.05c.084-.049.21-.017.274.056a.837.837 0 0 0 .115.106c.18.184.615.272.98.272.2 0 .379-.026.484-.077.15-.073.15-.185.143-.23a7.433 7.433 0 0 1-.034-.243c-.002-.01.013-.013.017-.004.022.048.048.107.12.119l.026.002c.102 0 .26.033.288.131.014.05.034.097.06.14.061.097.186.212.433.216h.019c.284 0 .502-.093.65-.276a.728.728 0 0 0 .027-.036c.054-.075.211-.078.278-.016a.4.4 0 0 0 .33.104.445.445 0 0 0 .32-.196.874.874 0 0 0 .12-.267c.01-.029.05-.038.072-.017.054.05.141.103.266.103a.48.48 0 0 0 .1-.01c.245-.05.368-.254.426-.484.002-.008.013-.01.018-.003a.465.465 0 0 0 .378.163h.032a.339.339 0 0 0 .26-.135c.075-.099.107-.244.115-.39a.145.145 0 0 1 .088-.124c.208-.09.454-.275.527-.402l.002-.002a.157.157 0 0 1 .102-.081c.155-.03.224-.06.288-.088a.713.713 0 0 1 .214-.06c.947-.145 1.132-.176 1.337-.313.306-.204.322-.486.337-.758.013-.23.027-.491.206-.797.065-.112.14-.252.22-.4.136-.252.325-.604.464-.797a.114.114 0 0 1 .139-.036c.32.137.592.273.651.32Z" fill="#fff"/><path d="M8.013 15.506c-.038.327-.06.765-.008 1.334.016.161.036.328.062.497-.044.024-.178.059-.417.055-.342-.007-.675-.093-.775-.201l-.016-.014c-.083-.067-.138-.111-.146-.23-.002-.041.015-.081.052-.138.02-.031.048-.068.08-.113.058-.078.13-.174.203-.298a6.214 6.214 0 0 1 .424-.65c.061-.083.133-.182.24-.346.08-.122.146-.217.201-.291.092-.125.151-.192.19-.229a3.624 3.624 0 0 1-.03.209c-.019.112-.042.25-.06.415ZM7.856 10.418l-.007.008c-.044.062-.095.132-.156.267-.163.363-.166.569-.169.734-.001.086-.002.155-.026.236a1.88 1.88 0 0 1-.073.184c-.097.22-.222.509-.166.898-.078-.038-.197-.124-.214-.17a1.652 1.652 0 0 0-.013-.062c-.027-.121-.045-.2.032-.378.203-.468.228-.579.244-.706a.698.698 0 0 1 .014-.085c.043-.184.066-.342.084-.469.027-.192.046-.32.11-.416.024-.035.091-.053.187-.053.038 0 .08.002.127.009h.011l.015.003ZM7.589 15.031a1.253 1.253 0 0 0-.072-.33l-.017-.038-.024-.04-.002-.001-.013-.014a.27.27 0 0 0-.038-.032l-.025-.014a.102.102 0 0 0-.014-.006l-.004-.002a.017.017 0 0 0-.003-.002h-.003l-.006-.003c-.065-.024-.131-.05-.2-.06h-.005l-.024-.002H7.088c0 .002-.002.002-.003.002l-.048.013-.02.01-.017.01-.002.002-.002.001-.022.022a.318.318 0 0 0-.016.02h-.001l-.001.002h-.001l-.005.008a15.558 15.558 0 0 1-.45.667l-.1.145-.016.024.117.023c.088.016.175.031.264.043.183.025.37.037.555.03.009 0 .018 0 .026.002.045-.064.097-.14.164-.242l.106-.158a.186.186 0 0 1-.027-.08ZM6.936 15.788c-.015.141-.173.507-.42.855-.206.291-.332.362-.357.364-.1-.014-.198-.26-.276-.505-.03-.099-.06-.198-.083-.28a1.971 1.971 0 0 1-.054-.593c.208.116.574.147 1.087.15h.002l.101.01ZM6.571 14.626l-.007.011-.266.388-.137.2c-.025.037-.058.077-.087.12-.073-.017-.146-.034-.219-.055a1.855 1.855 0 0 1-.208-.072.145.145 0 0 0-.039-.05l.001-.001c.02-.043.042-.085.063-.128.04-.078.08-.155.123-.23a1.047 1.047 0 0 1 .327-.375.395.395 0 0 1 .166-.063.8.8 0 0 1 .073 0l.008.001.01.003c.015.005.03.008.046.014a.36.36 0 0 1 .016.007c.013.008.027.016.04.026-.02-.015.028.035.028.031.04.054.051.1.062.173ZM5.873 14.257a1.612 1.612 0 0 0-.381.5c-.056.103-.106.208-.158.313a.553.553 0 0 1-.017.031 1.623 1.623 0 0 1-.366-.131c.05-.093.107-.182.163-.269.078-.122.163-.242.255-.354.035-.043.072-.09.12-.118.05-.03.11-.022.167-.02.06.005.126.006.183.029a.213.213 0 0 1 .034.02ZM5.613 16.448a.122.122 0 0 0-.02.023 2.917 2.917 0 0 1-.364.019c-.043-.002-.082-.009-.1-.036-.028-.043-.036-.117-.046-.174a2.832 2.832 0 0 1-.022-.852c.146.053.296.093.45.118a2.38 2.38 0 0 0 .056.742l.046.16ZM5.145 14.165a4.367 4.367 0 0 0-.352.501c-.043.071-.09.145-.126.22a.557.557 0 0 1-.146-.064 1.409 1.409 0 0 1-.11-.076c-.008-.008-.033-.027-.048-.04l-.01-.007c.01-.033.033-.07.045-.095a2.446 2.446 0 0 1 .29-.48c.03-.035.056-.08.1-.093a.307.307 0 0 1 .125 0 .39.39 0 0 1 .232.134ZM4.15 14.855c.002-.008.013-.01.018-.003.034.047.08.088.13.127l.066.05a.01.01 0 0 1 .005.01 2.954 2.954 0 0 0-.09.67c0 .012-.018.015-.021.003-.064-.27-.148-.7-.108-.857ZM4.783 15.333a3.246 3.246 0 0 0 0 .9.192.192 0 0 0-.072-.003c.005-.002-.007 0-.013 0h-.001l-.01-.002c-.028-.007-.03-.01-.052-.023a.264.264 0 0 1-.076-.084.652.652 0 0 1-.068-.3c-.007-.2.01-.399.047-.594l.106.044.139.061Z" fill="#fff"/><defs><linearGradient id="d" x1="3.077" y1="3.408" x2="19.828" y2="21.526" gradientUnits="userSpaceOnUse"><stop offset=".206" stop-color="#89D0FF"/><stop offset=".398" stop-color="#EBBF9A"/><stop offset=".602" stop-color="#A280EB"/><stop offset=".841" stop-color="#A281FF"/></linearGradient><linearGradient id="e" x1="3.077" y1="3.408" x2="19.828" y2="21.526" gradientUnits="userSpaceOnUse"><stop offset=".206" stop-color="#89D0FF"/><stop offset=".398" stop-color="#EBBF9A"/><stop offset=".602" stop-color="#A280EB"/><stop offset=".841" stop-color="#A281FF"/></linearGradient><linearGradient id="f" x1="3.077" y1="3.408" x2="19.828" y2="21.526" gradientUnits="userSpaceOnUse"><stop offset=".206" stop-color="#89D0FF"/><stop offset=".398" stop-color="#EBBF9A"/><stop offset=".602" stop-color="#A280EB"/><stop offset=".841" stop-color="#A281FF"/></linearGradient><linearGradient id="g" x1="3.077" y1="3.408" x2="19.828" y2="21.526" gradientUnits="userSpaceOnUse"><stop offset=".206" stop-color="#89D0FF"/><stop offset=".398" stop-color="#EBBF9A"/><stop offset=".602" stop-color="#A280EB"/><stop offset=".841" stop-color="#A281FF"/></linearGradient><linearGradient id="h" x1="3.077" y1="3.408" x2="19.828" y2="21.526" gradientUnits="userSpaceOnUse"><stop offset=".206" stop-color="#89D0FF"/><stop offset=".398" stop-color="#EBBF9A"/><stop offset=".602" stop-color="#A280EB"/><stop offset=".841" stop-color="#A281FF"/></linearGradient><linearGradient id="i" x1="3.077" y1="3.408" x2="19.828" y2="21.526" gradientUnits="userSpaceOnUse"><stop offset=".206" stop-color="#89D0FF"/><stop offset=".398" stop-color="#EBBF9A"/><stop offset=".602" stop-color="#A280EB"/><stop offset=".841" stop-color="#A281FF"/></linearGradient><radialGradient id="a" cx="0" cy="0" r="1" gradientUnits="userSpaceOnUse" gradientTransform="rotate(90 -.629 12.629) scale(13.4817)"><stop offset=".167" stop-color="#073183"/><stop offset="1" stop-color="#0054F9"/></radialGradient><radialGradient id="b" cx="0" cy="0" r="1" gradientUnits="userSpaceOnUse" gradientTransform="rotate(90 -.629 12.629) scale(13.4817)"><stop offset=".167" stop-color="#073183"/><stop offset="1" stop-color="#0054F9"/></radialGradient></defs></svg>