<svg fill="none" height="32" width="32" xmlns="http://www.w3.org/2000/svg" xmlns:xlink="http://www.w3.org/1999/xlink"><linearGradient id="a"><stop offset="0" stop-color="#00ffa3"/><stop offset="1" stop-color="#dc1fff"/></linearGradient><linearGradient id="b" gradientUnits="userSpaceOnUse" x1="24.691" x2="12.911" xlink:href="#a" y1="5.591" y2="28.155"/><linearGradient id="c" gradientUnits="userSpaceOnUse" x1="19.54" x2="7.76" xlink:href="#a" y1="2.902" y2="25.466"/><linearGradient id="d" gradientUnits="userSpaceOnUse" x1="22.099" x2="10.319" xlink:href="#a" y1="4.238" y2="26.802"/><path d="M16 32c8.837 0 16-7.163 16-16S24.837 0 16 0 0 7.163 0 16s7.163 16 16 16z" fill="#000"/><path d="M8.802 20.358a.698.698 0 0 1 .493-.204h17.022c.311 0 .467.376.247.596L23.2 24.112a.698.698 0 0 1-.493.204H5.686a.349.349 0 0 1-.246-.595z" fill="url(#b)"/><path d="M8.802 7.804a.717.717 0 0 1 .493-.204h17.022c.311 0 .467.375.247.595L23.2 11.558a.698.698 0 0 1-.493.204H5.686a.349.349 0 0 1-.246-.596z" fill="url(#c)"/><path d="M23.201 14.04a.698.698 0 0 0-.493-.203H5.686a.349.349 0 0 0-.246.595l3.362 3.363a.698.698 0 0 0 .493.203h17.022a.349.349 0 0 0 .247-.595z" fill="url(#d)"/></svg>