<svg width="24" height="24" fill="none" xmlns="http://www.w3.org/2000/svg"><path d="M12 24c6.627 0 12-5.373 12-12S18.627 0 12 0 0 5.373 0 12s5.373 12 12 12Z" fill="#F00500"/><g clip-path="url(#a)"><path d="M7.82 5.171c.469.49.898 1.02 1.28 1.584l.12-.04a8.432 8.432 0 0 1 2.143-.434 16.063 16.063 0 0 1 1.302 0 7.292 7.292 0 0 1 2.202.466c.395-.563.836-1.09 1.32-1.573a8.837 8.837 0 0 0-8.254-.061l-.113.058ZM3.478 16.276A9.251 9.251 0 0 0 5.05 19.15c.373.457.785.875 1.229 1.256A8.92 8.92 0 0 0 9.82 22.23c1.431.36 2.923.36 4.354 0a8.9 8.9 0 0 0 3.543-1.824c.443-.38.855-.8 1.228-1.256 1.978-2.439 2.578-5.788 1.571-8.806a9.771 9.771 0 0 0-.715-1.61 8.028 8.028 0 0 0-.373-.607 31.38 31.38 0 0 1-.724 2.656.65.65 0 0 0 .03.064c.654 1.382 1.008 2.714 1.092 4.131l.003.056c.022.424.011.626-.056.893-.21.834-.859 1.753-1.874 2.655-1.663 1.475-3.919 2.541-5.627 2.664-1.781.126-4.41-.96-6.16-2.547a9.003 9.003 0 0 1-.774-.811c-.174-.21-.432-.574-.412-.574.005 0 0-.006-.012-.012-.008-.005-.016-.014-.01-.02.002-.003-.004-.012-.012-.015-.008-.003-.014-.009-.011-.014.003-.006 0-.012-.011-.015-.009-.003-.012-.012-.009-.018.003-.005 0-.011-.006-.011-.005 0-.01-.009-.01-.015s-.006-.015-.012-.015-.011-.005-.011-.011a.31.31 0 0 0-.037-.067 7.797 7.797 0 0 1-.232-.434 4.17 4.17 0 0 1-.309-1.05 3.119 3.119 0 0 1-.025-.528c.003-.011.003-.032.005-.064.006-.059.009-.147.014-.234.006-.132.017-.317.026-.407.12-1.33.446-2.416 1.063-3.566.025-.044.047-.088.061-.123.006-.009.009-.018.012-.024a31.6 31.6 0 0 1-.727-2.713l-.005.005-.043.059c-.072.102-.266.407-.353.553a9.42 9.42 0 0 0-.923 2.152 9.516 9.516 0 0 0 .13 5.548Z" fill="#F00500"/><path d="M7.12 12.777c.007.047.14.188.271.29.387.296 1.08.571 1.784.703.401.076.802.088.923.026.079-.04.09-.073.062-.178-.06-.22-.25-.46-.547-.686a17.123 17.123 0 0 0-1.052-.667c-.471-.27-.853-.43-1.11-.469a.548.548 0 0 0-.211 0c-.05.021-.107.176-.13.364-.01.1-.005.538.01.617ZM13.728 13.746c.017.035.1.074.196.088.096.015.387.006.553-.014.595-.082 1.226-.273 1.686-.507.258-.132.443-.263.58-.407l.079-.085.008-.11a3.199 3.199 0 0 0-.01-.607.82.82 0 0 0-.088-.258c-.022-.029-.022-.029-.123-.029-.124 0-.228.02-.396.076-.345.111-.858.38-1.484.773-.516.322-.71.48-.858.697-.101.135-.168.325-.143.383ZM9.756 17.822c0 .008.034.149.076.316.042.167.075.301.075.307.031.003.06.006.09.003h.09l.123.305c.068.166.13.322.138.345l.017.041.059-.1.058-.099v-.811l.023.006c.048.012.387.058.536.073a7.33 7.33 0 0 0 1.843-.04 1.76 1.76 0 0 1 .185-.024c.002.003 0 .19-.006.421l-.008.416.047.076c.026.041.05.076.05.08.01.008.037-.039.102-.174.07-.14.12-.29.157-.445l.02-.085.087.006.086.01.023-.11a3.22 3.22 0 0 0 .03-.198l.01-.094.072-.067c.042-.038.084-.076.093-.082.014-.012.02-.032.02-.05v-.035l-.351.003-.35.003-.012.038-.011.038-.121.006c-.067.003-.28.009-.471.014l-.35.01-.09-.147-.093-.147h-.118l.003-.304.003-.305.154-.07c.496-.228.788-.489.898-.805.022-.064.022-.088.027-.38.003-.29.003-.317-.016-.381a.417.417 0 0 0-.29-.299c-.047-.014-.173-.014-.835-.014l-.78.003-.087.043a.492.492 0 0 0-.21.173c-.068.094-.087.167-.087.346 0 .254.017.474.042.562.036.12.092.234.162.336.14.188.396.375.629.46l.067.026-.003.308-.002.307-.062.006-.062.006-.084.132-.081.131h-.376a8.6 8.6 0 0 0-.407.006c-.028.006-.034.003-.062-.047l-.033-.052h-.323c-.241-.012-.314-.006-.314.003Z" fill="#000"/><path d="M11.237 18.662c.053.032.09.047.098.04.009-.002.048-.037.09-.07l.076-.064.078.088c.171.193.177.202.227.205.079.009.096-.006.191-.155l.09-.14s.036-.007.078-.01l.079-.008.037.079.036.079.064-.02c.05-.018.101-.039.15-.062l.083-.044v-.167l-.746.003-.746.003-.003.079c-.003.093-.005.09.118.164Z" fill="#000"/><path d="M4.224 15.09c.003-.011.003-.032.006-.064.673-.076 2.595-.123 4.379 1.414 0 0 .575-2.752 3.268-2.752 2.692 0 3.691 2.752 3.691 2.752 1.51-1.695 3.529-1.572 4.258-1.461l.003.056c.022.424.011.626-.056.893-.21.834-.859 1.753-1.874 2.655-1.663 1.475-3.919 2.54-5.627 2.664-1.781.126-4.41-.96-6.16-2.547a9.004 9.004 0 0 1-.774-.811c-.174-.21-.432-.574-.412-.574.005 0 0-.006-.012-.012-.008-.005-.016-.014-.01-.02.002-.003-.004-.012-.012-.015-.008-.003-.014-.009-.011-.014.003-.006 0-.012-.011-.015-.009-.003-.012-.012-.009-.018.003-.005 0-.011-.005-.011-.006 0-.012-.009-.012-.015s-.005-.015-.01-.015c-.007 0-.012-.005-.012-.011a.309.309 0 0 0-.037-.068 7.761 7.761 0 0 1-.232-.433 4.168 4.168 0 0 1-.309-1.05 3.7 3.7 0 0 1-.02-.528Zm7.013 3.572c.053.032.09.047.098.04.009-.002.048-.037.09-.07l.076-.064.078.088c.171.193.177.202.227.205.079.009.096-.006.191-.155l.09-.14s.036-.007.079-.01l.078-.008.037.079.036.079.064-.02c.05-.018.101-.039.15-.062l.083-.044v-.167l-.746.003-.746.003-.003.079c-.003.094-.005.09.118.164Zm-1.403-.527c.043.167.076.301.076.307.031.003.06.006.09.003h.09l.12.308c.068.166.13.322.138.345l.017.041.059-.1.058-.1v-.81l.023.006c.048.012.387.058.536.073.614.065 1.231.05 1.843-.04.098-.016.182-.027.185-.024.002.003 0 .19-.006.421l-.008.416.047.076c.026.041.05.076.05.08.01.008.037-.039.102-.174.07-.14.12-.29.157-.445l.02-.085.087.006.086.01.023-.11c.011-.058.025-.148.03-.198l.01-.094.072-.067c.042-.038.084-.076.093-.082.014-.012.02-.032.02-.05v-.035l-.351.003-.351.003-.011.038-.011.038-.121.006c-.067.003-.28.008-.471.014l-.35.01-.09-.147-.093-.147h-.118l.003-.304.003-.305.154-.07c.496-.228.788-.489.898-.805.022-.064.022-.088.027-.38.003-.29.003-.317-.016-.381a.417.417 0 0 0-.29-.299c-.047-.014-.173-.014-.835-.014l-.78.002-.087.045a.491.491 0 0 0-.21.172c-.068.094-.087.167-.087.346 0 .254.017.474.042.562.036.12.092.234.162.336.14.188.396.375.629.46l.067.026-.003.308-.002.307-.062.006-.062.006-.084.132-.081.131h-.376c-.208 0-.39.003-.407.006-.028.006-.034.003-.062-.047l-.033-.052h-.323c-.25 0-.322.003-.322.011.008-.002.044.14.086.305Z" fill="#fff"/><path d="M4.247 14.792c.005-.132.017-.317.025-.407.12-1.33.446-2.416 1.063-3.566.025-.044.048-.088.062-.123l.011-.024a31.586 31.586 0 0 1-.726-2.713c-.385-1.769-.629-3.836.117-4.456 0 0 1.29-.1 3.019 1.669.468.488.897 1.018 1.279 1.583l.12-.04a8.432 8.432 0 0 1 2.143-.434 16.065 16.065 0 0 1 1.302 0 7.293 7.293 0 0 1 2.123.436c.028.012.054.02.079.03.395-.563.836-1.09 1.321-1.573C17.983 3.397 19.321 3.5 19.321 3.5c.791.641.522 2.802.112 4.628-.269 1.21-.6 2.272-.723 2.656.008.02.02.044.03.064.654 1.382 1.008 2.714 1.092 4.13-.733-.11-2.75-.236-4.261 1.462 0 0-.999-2.752-3.692-2.752-2.692 0-3.268 2.752-3.268 2.752a5.8 5.8 0 0 0-4.378-1.414l.014-.234ZM18.18 9.68s1.049-2.737.78-4.3a1.545 1.545 0 0 0-.262-.671s-1.189.123-3.108 2.348a5.453 5.453 0 0 0 .859.58 6.947 6.947 0 0 1 1.73 2.043Zm-4.452 4.066c.017.035.1.074.196.088.096.015.387.006.553-.014.595-.082 1.226-.273 1.686-.507.258-.132.443-.263.58-.407l.079-.085.008-.111a3.189 3.189 0 0 0-.011-.606.818.818 0 0 0-.087-.258c-.022-.029-.022-.029-.123-.029-.124 0-.228.02-.396.076-.345.111-.858.38-1.484.773-.516.322-.71.48-.858.697-.101.135-.168.325-.143.383Zm-6.609-.969c.009.047.14.188.272.29.387.296 1.08.571 1.784.703.401.076.803.088.923.026.079-.04.09-.073.062-.178-.059-.22-.25-.46-.547-.686a17.08 17.08 0 0 0-1.052-.667c-.471-.27-.853-.43-1.11-.468a.548.548 0 0 0-.211 0c-.05.02-.107.175-.13.363-.01.1-.005.538.01.617Zm.466-5.143.005-.003c.472-.393.825-.577.825-.577-1.854-2.225-3.001-2.348-3.001-2.348a1.628 1.628 0 0 0-.253.67c-.26 1.564.752 4.304.752 4.304a6.903 6.903 0 0 1 1.672-2.046Z" fill="#FFA409"/><path d="M5.158 5.376c.22-.029 1.254-.035 2.427 2.258l.005-.003c.472-.393.825-.577.825-.577-1.854-2.225-3.001-2.348-3.001-2.348-.13.179-.21.407-.256.67Z" fill="#FF9300"/><path d="M5.91 9.68a6.876 6.876 0 0 1 1.675-2.046C6.412 5.34 5.38 5.347 5.158 5.376c-.26 1.567.752 4.304.752 4.304ZM5.116 5.385l.042-.009-.042.01Z" fill="#FF8300"/><path d="M15.59 7.054a5.457 5.457 0 0 0 .859.58c1.214-2.296 2.283-2.287 2.513-2.258a1.545 1.545 0 0 0-.26-.67c-.004 0-1.193.123-3.112 2.348Z" fill="#FF9300"/><path d="M16.446 7.634a6.924 6.924 0 0 1 1.733 2.046s1.05-2.737.78-4.304c-.227-.029-1.298-.035-2.513 2.258Z" fill="#FF8300"/><path d="m18.96 5.376.044.01-.045-.01Z" fill="#FF8300"/><path d="M8.749 11.2s.897.058.785-.674c-.112-.732-.813-.82-1.01-.79-.196.029-.981.322-.841.936.14.615.337.498.449.527.112.03.617 0 .617 0ZM15.369 11.2s.897.058.785-.674c-.112-.732-.813-.82-1.01-.79-.196.029-.981.322-.841.936.14.615.336.498.449.527.112.03.617 0 .617 0Z" fill="#fff"/></g><defs><clipPath id="a"><path fill="#fff" transform="matrix(-1 0 0 1 21 3.5)" d="M0 0h18v19H0z"/></clipPath></defs></svg>