<svg width="24" height="24" fill="none" xmlns="http://www.w3.org/2000/svg"><path d="M12 24a12 12 0 100-24 12 12 0 000 24z" fill="url(#paint0_linear)"/><path fill-rule="evenodd" clip-rule="evenodd" d="M8.5 7.8v9H16l-7.5-9z" fill="url(#paint1_linear)"/><path fill-rule="evenodd" clip-rule="evenodd" d="M1 16.8h7.5v-9l-7.5 9z" fill="#fff"/><path fill-rule="evenodd" clip-rule="evenodd" d="M2.4 19.2c.7 1 1.5 1.7 2.4 2.4h14.4c1-.7 1.7-1.5 2.4-2.4H2.4z" fill="#FC9965"/><path fill-rule="evenodd" clip-rule="evenodd" d="M4.8 21.6a12 12 0 0014.4 0H4.8z" fill="#FF2D55"/><path fill-rule="evenodd" clip-rule="evenodd" d="M16.1 12.6v6.6h5.5l-5.5-6.6z" fill="url(#paint2_linear)"/><path fill-rule="evenodd" clip-rule="evenodd" d="M16.1 16.8H1c.4.9.8 1.7 1.4 2.4h13.7v-2.4z" fill="#FFBC5B"/><path fill-rule="evenodd" clip-rule="evenodd" d="M10.6 19.2h5.5v-6.6l-5.5 6.6z" fill="#fff"/><path d="M16.1 10.8a3 3 0 100-6 3 3 0 000 6zM8.5 6a1.5 1.5 0 100-3 1.5 1.5 0 000 3z" fill="#FFC95B"/><defs><linearGradient id="paint0_linear" x1="20.5" y1="3.5" x2="3.5" y2="20.5" gradientUnits="userSpaceOnUse"><stop stop-color="#FF2D55"/><stop offset="1" stop-color="#FFBC5B"/></linearGradient><linearGradient id="paint1_linear" x1="12.2" y1="7.8" x2="12.2" y2="16.8" gradientUnits="userSpaceOnUse"><stop stop-color="#A524B3"/><stop offset="1" stop-color="#FF2D55"/></linearGradient><linearGradient id="paint2_linear" x1="18.8" y1="12.6" x2="18.8" y2="19.2" gradientUnits="userSpaceOnUse"><stop stop-color="#A524B3"/><stop offset="1" stop-color="#FF2D55"/></linearGradient></defs></svg>