<svg width="21" height="20" viewBox="0 0 21 20" fill="none" xmlns="http://www.w3.org/2000/svg">
<path fill-rule="evenodd" clip-rule="evenodd" d="M8.55147 14.9998C10.0835 14.9998 11.4947 14.4815 12.6197 13.6105L17.0912 18.0885C17.4164 18.4142 17.9437 18.4142 18.2689 18.0885L18.2927 18.0647C18.6179 17.739 18.6179 17.211 18.2927 16.8853L13.8211 12.4072C14.6909 11.2806 15.2084 9.86742 15.2084 8.33317C15.2084 4.65127 12.228 1.6665 8.55147 1.6665C4.87495 1.6665 1.89453 4.65127 1.89453 8.33317C1.89453 12.0151 4.87495 14.9998 8.55147 14.9998ZM14.2098 8.33272C14.2098 11.4623 11.6764 13.9994 8.55139 13.9994C5.42634 13.9994 2.89299 11.4623 2.89299 8.33272C2.89299 5.2031 5.42634 2.66605 8.55139 2.66605C11.6764 2.66605 14.2098 5.2031 14.2098 8.33272Z" fill="#333333"/>
</svg>
