<svg width="14" height="18" viewBox="0 0 14 18" fill="none" xmlns="http://www.w3.org/2000/svg">
<path fill-rule="evenodd" clip-rule="evenodd" d="M6.52004 0.637358L0.577245 6.58015C0.457245 6.70015 0.397245 6.85015 0.397245 7.00015C0.397245 7.15015 0.457245 7.31015 0.577245 7.42015C0.807244 7.65015 1.18725 7.65015 1.42725 7.42015L6.39717 2.45023V17.0001C6.39717 17.3301 6.66717 17.6001 6.99717 17.6001C7.32717 17.6001 7.59717 17.3301 7.59717 17.0001V2.45008L12.5772 7.43015C12.8072 7.66015 13.1872 7.66015 13.4272 7.43015C13.6672 7.20015 13.6572 6.82015 13.4272 6.58015L7.42725 0.580154C7.39918 0.552083 7.36887 0.527438 7.33686 0.50622C7.24011 0.439345 7.123 0.400085 6.99717 0.400085C6.80317 0.400085 6.6299 0.493399 6.52004 0.637358Z" fill="url(#paint0_radial_1597_4759)"/>
<defs>
<radialGradient id="paint0_radial_1597_4759" cx="0" cy="0" r="1" gradientUnits="userSpaceOnUse" gradientTransform="translate(0.397244 13.691) rotate(-28.8037) scale(17.633 51.8603)">
<stop stop-color="#FF8500"/>
<stop offset="0.932292" stop-color="#FF3E00"/>
</radialGradient>
</defs>
</svg>
