<svg width="28" height="28" viewBox="0 0 28 28" fill="none" xmlns="http://www.w3.org/2000/svg">
<g clip-path="url(#clip0_425_8519)">
<path fill-rule="evenodd" clip-rule="evenodd" d="M22.9005 4.67768C22.4534 4.23061 21.7285 4.23061 21.2815 4.67768L13.996 11.9631L6.71067 4.67772C6.2636 4.23065 5.53875 4.23065 5.09168 4.67772C4.64462 5.12479 4.64462 5.84964 5.09169 6.29671L12.3771 13.5821L5.09166 20.8675C4.64459 21.3146 4.64459 22.0394 5.09166 22.4865C5.53873 22.9336 6.26357 22.9336 6.71064 22.4865L13.996 15.2011L21.2815 22.4865C21.7286 22.9336 22.4534 22.9336 22.9005 22.4865C23.3476 22.0395 23.3476 21.3146 22.9005 20.8675L15.615 13.5821L22.9005 6.29666C23.3475 5.84959 23.3475 5.12475 22.9005 4.67768Z" fill="#999999"/>
</g>
<defs>
<clipPath id="clip0_425_8519">
<rect width="28" height="28" fill="white"/>
</clipPath>
</defs>
</svg>
