<svg width="47" height="52" viewBox="0 0 47 52" fill="none" xmlns="http://www.w3.org/2000/svg">
<path d="M4.01652 11.3311L19.3775 2.23367C23.4737 -0.192317 26.4959 1.59816 27.6199 2.23367C31.866 4.63439 40.9577 9.81489 43.3555 11.3311C45.7533 12.8474 46.103 15.5008 45.9781 16.638V34.8329C45.9781 38.1687 44.2297 40.2661 43.3555 40.8979C39.3592 43.1723 30.5422 48.1759 27.2453 49.9954C23.9483 51.8149 20.3765 50.7535 19.0028 49.9954C15.1313 47.721 6.71405 42.7174 4.01652 40.8979C1.31899 39.0784 0.894379 36.0965 1.01926 34.8329V16.638C1.01926 13.6055 3.01743 11.8366 4.01652 11.3311Z" stroke="white" stroke-width="1.5"/>
</svg>
